<?xml version="1.0" standalone="no"?>
<!DOCTYPE svg PUBLIC "-//W3C//DTD SVG 20010904//EN"
 "http://www.w3.org/TR/2001/REC-SVG-20010904/DTD/svg10.dtd">
<svg version="1.0" xmlns="http://www.w3.org/2000/svg"
 viewBox="0 0 32 32"
 preserveAspectRatio="xMidYMid meet">

<g transform="translate(0.000000,32.000000) scale(0.100000,-0.100000)"
fill="#000000" stroke="none">
<path d="M106 294 c-31 -32 -34 -71 -6 -107 15 -19 20 -40 20 -90 0 -52 4 -67
20 -82 20 -18 22 -18 38 -1 12 12 17 34 17 79 0 50 5 69 23 91 12 16 22 41 22
56 0 36 -44 80 -80 80 -16 0 -38 -11 -54 -26z m69 -13 c7 -12 -12 -24 -25 -16
-11 7 -4 25 10 25 5 0 11 -4 15 -9z"/>
</g>
</svg>
